<mxfile host="app.diagrams.net" modified="2021-05-07T21:39:54.800Z" agent="5.0 (X11)" etag="rHek3ajoK3cOR5tw3xnY" version="14.6.11" type="github">
  <diagram id="C5RBs43oDa-KdzZeNtuy" name="Page-1">
    <mxGraphModel dx="1931" dy="1781" grid="1" gridSize="10" guides="1" tooltips="1" connect="1" arrows="1" fold="1" page="1" pageScale="1" pageWidth="827" pageHeight="1169" math="0" shadow="0">
      <root>
        <mxCell id="WIyWlLk6GJQsqaUBKTNV-0" />
        <mxCell id="WIyWlLk6GJQsqaUBKTNV-1" parent="WIyWlLk6GJQsqaUBKTNV-0" />
        <mxCell id="v-YkRU_EQzXXgoIS1i0s-19" value="" style="rounded=1;whiteSpace=wrap;html=1;strokeColor=#666666;fontColor=#333333;fillColor=#E3F7E2;" parent="WIyWlLk6GJQsqaUBKTNV-1" vertex="1">
          <mxGeometry x="-54" y="100" width="734" height="530" as="geometry" />
        </mxCell>
        <mxCell id="v-YkRU_EQzXXgoIS1i0s-18" value="" style="rounded=1;whiteSpace=wrap;html=1;strokeColor=#82b366;fillColor=#E3F7E2;" parent="WIyWlLk6GJQsqaUBKTNV-1" vertex="1">
          <mxGeometry x="220" y="-150" width="710" height="210" as="geometry" />
        </mxCell>
        <mxCell id="zkfFHV4jXpPFQw0GAbJ--0" value="ITask" style="swimlane;fontStyle=2;align=center;verticalAlign=top;childLayout=stackLayout;horizontal=1;startSize=26;horizontalStack=0;resizeParent=1;resizeLast=0;collapsible=1;marginBottom=0;rounded=0;shadow=0;strokeWidth=1;fillColor=#D4E1F5;" parent="WIyWlLk6GJQsqaUBKTNV-1" vertex="1">
          <mxGeometry x="261" y="120" width="90" height="112" as="geometry">
            <mxRectangle x="230" y="140" width="160" height="26" as="alternateBounds" />
          </mxGeometry>
        </mxCell>
        <mxCell id="zkfFHV4jXpPFQw0GAbJ--5" value="+ execute()&#xa;+ cancel()&#xa;+ pause()&#xa;+ resume()&#xa;+ getState()" style="text;align=left;verticalAlign=top;spacingLeft=4;spacingRight=4;overflow=hidden;rotatable=0;points=[[0,0.5],[1,0.5]];portConstraint=eastwest;fillColor=#dae8fc;strokeColor=#000000;" parent="zkfFHV4jXpPFQw0GAbJ--0" vertex="1">
          <mxGeometry y="26" width="90" height="86" as="geometry" />
        </mxCell>
        <mxCell id="zkfFHV4jXpPFQw0GAbJ--6" value="Task" style="swimlane;fontStyle=0;align=center;verticalAlign=top;childLayout=stackLayout;horizontal=1;startSize=26;horizontalStack=0;resizeParent=1;resizeLast=0;collapsible=1;marginBottom=0;rounded=0;shadow=0;strokeWidth=1;fillColor=#D4E1F5;" parent="WIyWlLk6GJQsqaUBKTNV-1" vertex="1">
          <mxGeometry x="146" y="300" width="140" height="72" as="geometry">
            <mxRectangle x="130" y="380" width="160" height="26" as="alternateBounds" />
          </mxGeometry>
        </mxCell>
        <mxCell id="zkfFHV4jXpPFQw0GAbJ--10" value="+ execute()&#xa;+ cancel()" style="text;align=left;verticalAlign=top;spacingLeft=4;spacingRight=4;overflow=hidden;rotatable=0;points=[[0,0.5],[1,0.5]];portConstraint=eastwest;fontStyle=0;fillColor=#dae8fc;strokeColor=#000000;" parent="zkfFHV4jXpPFQw0GAbJ--6" vertex="1">
          <mxGeometry y="26" width="140" height="46" as="geometry" />
        </mxCell>
        <mxCell id="zkfFHV4jXpPFQw0GAbJ--12" value="" style="endArrow=block;endSize=10;endFill=0;shadow=0;strokeWidth=1;rounded=0;edgeStyle=elbowEdgeStyle;elbow=vertical;" parent="WIyWlLk6GJQsqaUBKTNV-1" source="zkfFHV4jXpPFQw0GAbJ--6" target="zkfFHV4jXpPFQw0GAbJ--0" edge="1">
          <mxGeometry width="160" relative="1" as="geometry">
            <mxPoint x="226" y="203" as="sourcePoint" />
            <mxPoint x="226" y="203" as="targetPoint" />
            <Array as="points">
              <mxPoint x="216" y="260" />
            </Array>
          </mxGeometry>
        </mxCell>
        <mxCell id="zkfFHV4jXpPFQw0GAbJ--13" value="TaskIndexFiles" style="swimlane;fontStyle=0;align=center;verticalAlign=top;childLayout=stackLayout;horizontal=1;startSize=26;horizontalStack=0;resizeParent=1;resizeLast=0;collapsible=1;marginBottom=0;rounded=0;shadow=0;strokeWidth=1;fillColor=#D4E1F5;" parent="WIyWlLk6GJQsqaUBKTNV-1" vertex="1">
          <mxGeometry x="231" y="430" width="120" height="52" as="geometry">
            <mxRectangle x="340" y="380" width="170" height="26" as="alternateBounds" />
          </mxGeometry>
        </mxCell>
        <mxCell id="j6-FKQegblNEumCKdTVI-0" value="+ execute()" style="text;align=left;verticalAlign=top;spacingLeft=4;spacingRight=4;overflow=hidden;rotatable=0;points=[[0,0.5],[1,0.5]];portConstraint=eastwest;fontStyle=0;fillColor=#dae8fc;strokeColor=#000000;" parent="zkfFHV4jXpPFQw0GAbJ--13" vertex="1">
          <mxGeometry y="26" width="120" height="26" as="geometry" />
        </mxCell>
        <mxCell id="j6-FKQegblNEumCKdTVI-1" value="TaskSendNotifications" style="swimlane;fontStyle=0;align=center;verticalAlign=top;childLayout=stackLayout;horizontal=1;startSize=26;horizontalStack=0;resizeParent=1;resizeLast=0;collapsible=1;marginBottom=0;rounded=0;shadow=0;strokeWidth=1;fillColor=#D4E1F5;" parent="WIyWlLk6GJQsqaUBKTNV-1" vertex="1">
          <mxGeometry x="61" y="430" width="150" height="52" as="geometry">
            <mxRectangle x="340" y="380" width="170" height="26" as="alternateBounds" />
          </mxGeometry>
        </mxCell>
        <mxCell id="j6-FKQegblNEumCKdTVI-3" value="+ execute()" style="text;align=left;verticalAlign=top;spacingLeft=4;spacingRight=4;overflow=hidden;rotatable=0;points=[[0,0.5],[1,0.5]];portConstraint=eastwest;fontStyle=0;fillColor=#dae8fc;strokeColor=#000000;" parent="j6-FKQegblNEumCKdTVI-1" vertex="1">
          <mxGeometry y="26" width="150" height="26" as="geometry" />
        </mxCell>
        <mxCell id="j6-FKQegblNEumCKdTVI-4" value="" style="endArrow=block;endSize=10;endFill=0;html=1;entryX=0.5;entryY=1;entryDx=0;entryDy=0;exitX=0.5;exitY=0;exitDx=0;exitDy=0;" parent="WIyWlLk6GJQsqaUBKTNV-1" source="j6-FKQegblNEumCKdTVI-1" target="zkfFHV4jXpPFQw0GAbJ--6" edge="1">
          <mxGeometry width="160" relative="1" as="geometry">
            <mxPoint x="386" y="700" as="sourcePoint" />
            <mxPoint x="546" y="700" as="targetPoint" />
            <Array as="points">
              <mxPoint x="136" y="400" />
              <mxPoint x="216" y="400" />
            </Array>
          </mxGeometry>
        </mxCell>
        <mxCell id="j6-FKQegblNEumCKdTVI-5" value="SequenceTasks" style="swimlane;fontStyle=0;align=center;verticalAlign=top;childLayout=stackLayout;horizontal=1;startSize=26;horizontalStack=0;resizeParent=1;resizeLast=0;collapsible=1;marginBottom=0;rounded=0;shadow=0;strokeWidth=1;fillColor=#D4E1F5;" parent="WIyWlLk6GJQsqaUBKTNV-1" vertex="1">
          <mxGeometry x="380" y="300" width="150" height="138" as="geometry">
            <mxRectangle x="340" y="380" width="170" height="26" as="alternateBounds" />
          </mxGeometry>
        </mxCell>
        <mxCell id="j6-FKQegblNEumCKdTVI-8" value="- _tasks : List [ITask]&#xa;# iterate : ControlIterator&#xa;" style="text;align=left;verticalAlign=top;spacingLeft=4;spacingRight=4;overflow=hidden;rotatable=0;points=[[0,0.5],[1,0.5]];portConstraint=eastwest;fontStyle=0;fillColor=#dae8fc;strokeColor=#000000;" parent="j6-FKQegblNEumCKdTVI-5" vertex="1">
          <mxGeometry y="26" width="150" height="44" as="geometry" />
        </mxCell>
        <mxCell id="j6-FKQegblNEumCKdTVI-7" value="+ add(exe : ITask)&#xa;+ execute()&#xa;+ cancel()&#xa;+ pause()&#xa;&#xa;" style="text;align=left;verticalAlign=top;spacingLeft=4;spacingRight=4;overflow=hidden;rotatable=0;points=[[0,0.5],[1,0.5]];portConstraint=eastwest;fontStyle=0;fillColor=#dae8fc;strokeColor=#000000;" parent="j6-FKQegblNEumCKdTVI-5" vertex="1">
          <mxGeometry y="70" width="150" height="68" as="geometry" />
        </mxCell>
        <mxCell id="j6-FKQegblNEumCKdTVI-9" value="SequenceIterative" style="swimlane;fontStyle=0;align=center;verticalAlign=top;childLayout=stackLayout;horizontal=1;startSize=26;horizontalStack=0;resizeParent=1;resizeLast=0;collapsible=1;marginBottom=0;rounded=0;shadow=0;strokeWidth=1;fillColor=#dae8fc;" parent="WIyWlLk6GJQsqaUBKTNV-1" vertex="1">
          <mxGeometry x="396" y="470" width="120" height="52" as="geometry">
            <mxRectangle x="340" y="380" width="170" height="26" as="alternateBounds" />
          </mxGeometry>
        </mxCell>
        <mxCell id="j6-FKQegblNEumCKdTVI-11" value="+ execute()" style="text;align=left;verticalAlign=top;spacingLeft=4;spacingRight=4;overflow=hidden;rotatable=0;points=[[0,0.5],[1,0.5]];portConstraint=eastwest;fontStyle=0;fillColor=#dae8fc;strokeColor=#000000;" parent="j6-FKQegblNEumCKdTVI-9" vertex="1">
          <mxGeometry y="26" width="120" height="26" as="geometry" />
        </mxCell>
        <mxCell id="j6-FKQegblNEumCKdTVI-12" value="" style="endArrow=block;endSize=10;endFill=0;html=1;entryX=0.5;entryY=1;entryDx=0;entryDy=0;exitX=0.5;exitY=0;exitDx=0;exitDy=0;" parent="WIyWlLk6GJQsqaUBKTNV-1" source="j6-FKQegblNEumCKdTVI-9" target="j6-FKQegblNEumCKdTVI-5" edge="1">
          <mxGeometry width="160" relative="1" as="geometry">
            <mxPoint x="226" y="380" as="sourcePoint" />
            <mxPoint x="386" y="380" as="targetPoint" />
          </mxGeometry>
        </mxCell>
        <mxCell id="j6-FKQegblNEumCKdTVI-13" value="" style="endArrow=block;endSize=10;endFill=0;html=1;entryX=0.5;entryY=1;entryDx=0;entryDy=0;exitX=0.5;exitY=0;exitDx=0;exitDy=0;" parent="WIyWlLk6GJQsqaUBKTNV-1" source="zkfFHV4jXpPFQw0GAbJ--13" target="zkfFHV4jXpPFQw0GAbJ--6" edge="1">
          <mxGeometry width="160" relative="1" as="geometry">
            <mxPoint x="171" y="440" as="sourcePoint" />
            <mxPoint x="191" y="380" as="targetPoint" />
            <Array as="points">
              <mxPoint x="291" y="400" />
              <mxPoint x="216" y="400" />
            </Array>
          </mxGeometry>
        </mxCell>
        <mxCell id="j6-FKQegblNEumCKdTVI-14" value="" style="endArrow=none;html=1;endSize=12;startArrow=diamondThin;startSize=14;startFill=1;edgeStyle=orthogonalEdgeStyle;align=left;verticalAlign=bottom;entryX=1;entryY=0.5;entryDx=0;entryDy=0;exitX=0.5;exitY=0;exitDx=0;exitDy=0;endFill=0;" parent="WIyWlLk6GJQsqaUBKTNV-1" source="j6-FKQegblNEumCKdTVI-5" target="zkfFHV4jXpPFQw0GAbJ--5" edge="1">
          <mxGeometry x="-1" y="3" relative="1" as="geometry">
            <mxPoint x="86" y="500" as="sourcePoint" />
            <mxPoint x="246" y="500" as="targetPoint" />
          </mxGeometry>
        </mxCell>
        <mxCell id="j6-FKQegblNEumCKdTVI-15" value="Composite Design Pattern" style="text;html=1;strokeColor=none;fillColor=none;align=center;verticalAlign=middle;whiteSpace=wrap;rounded=0;" parent="WIyWlLk6GJQsqaUBKTNV-1" vertex="1">
          <mxGeometry x="356" y="130" width="160" height="20" as="geometry" />
        </mxCell>
        <mxCell id="j6-FKQegblNEumCKdTVI-16" value="Command Design Pattern" style="text;html=1;strokeColor=none;fillColor=none;align=center;verticalAlign=middle;whiteSpace=wrap;rounded=0;" parent="WIyWlLk6GJQsqaUBKTNV-1" vertex="1">
          <mxGeometry x="-34" y="380" width="160" height="20" as="geometry" />
        </mxCell>
        <mxCell id="j6-FKQegblNEumCKdTVI-17" value="TaskBatchDataLoad" style="swimlane;fontStyle=0;align=center;verticalAlign=top;childLayout=stackLayout;horizontal=1;startSize=26;horizontalStack=0;resizeParent=1;resizeLast=0;collapsible=1;marginBottom=0;rounded=0;shadow=0;strokeWidth=1;fillColor=#D4E1F5;" parent="WIyWlLk6GJQsqaUBKTNV-1" vertex="1">
          <mxGeometry x="150" y="525" width="140" height="52" as="geometry">
            <mxRectangle x="130" y="380" width="160" height="26" as="alternateBounds" />
          </mxGeometry>
        </mxCell>
        <mxCell id="j6-FKQegblNEumCKdTVI-19" value="+ execute()" style="text;align=left;verticalAlign=top;spacingLeft=4;spacingRight=4;overflow=hidden;rotatable=0;points=[[0,0.5],[1,0.5]];portConstraint=eastwest;fontStyle=0;fillColor=#dae8fc;strokeColor=#000000;" parent="j6-FKQegblNEumCKdTVI-17" vertex="1">
          <mxGeometry y="26" width="140" height="26" as="geometry" />
        </mxCell>
        <mxCell id="j6-FKQegblNEumCKdTVI-20" value="" style="endArrow=block;endSize=10;endFill=0;html=1;exitX=0.477;exitY=-0.002;exitDx=0;exitDy=0;exitPerimeter=0;entryX=0.502;entryY=1.004;entryDx=0;entryDy=0;entryPerimeter=0;" parent="WIyWlLk6GJQsqaUBKTNV-1" source="j6-FKQegblNEumCKdTVI-17" target="zkfFHV4jXpPFQw0GAbJ--10" edge="1">
          <mxGeometry width="160" relative="1" as="geometry">
            <mxPoint x="196" y="420" as="sourcePoint" />
            <mxPoint x="216" y="370" as="targetPoint" />
          </mxGeometry>
        </mxCell>
        <mxCell id="j6-FKQegblNEumCKdTVI-21" value="TasksManagementService" style="swimlane;fontStyle=0;align=center;verticalAlign=top;childLayout=stackLayout;horizontal=1;startSize=26;horizontalStack=0;resizeParent=1;resizeLast=0;collapsible=1;marginBottom=0;rounded=0;shadow=0;strokeWidth=1;fillColor=#D4E1F5;" parent="WIyWlLk6GJQsqaUBKTNV-1" vertex="1">
          <mxGeometry x="-10" y="117" width="230" height="93" as="geometry">
            <mxRectangle x="230" y="140" width="160" height="26" as="alternateBounds" />
          </mxGeometry>
        </mxCell>
        <mxCell id="j6-FKQegblNEumCKdTVI-23" value="+ execute()&#xa;+ cancel()&#xa;+ pause()&#xa;+ setSequenceTasks(id int, task : ITask)" style="text;align=left;verticalAlign=top;spacingLeft=4;spacingRight=4;overflow=hidden;rotatable=0;points=[[0,0.5],[1,0.5]];portConstraint=eastwest;fillColor=#dae8fc;strokeColor=#000000;" parent="j6-FKQegblNEumCKdTVI-21" vertex="1">
          <mxGeometry y="26" width="230" height="66" as="geometry" />
        </mxCell>
        <mxCell id="j6-FKQegblNEumCKdTVI-24" value="" style="endArrow=none;html=1;endSize=12;startArrow=diamondThin;startSize=14;startFill=0;edgeStyle=orthogonalEdgeStyle;align=left;verticalAlign=bottom;exitX=1;exitY=0.13;exitDx=0;exitDy=0;exitPerimeter=0;entryX=0.011;entryY=0.061;entryDx=0;entryDy=0;entryPerimeter=0;endFill=0;" parent="WIyWlLk6GJQsqaUBKTNV-1" source="j6-FKQegblNEumCKdTVI-23" target="zkfFHV4jXpPFQw0GAbJ--5" edge="1">
          <mxGeometry x="-1" y="3" relative="1" as="geometry">
            <mxPoint x="196" y="440" as="sourcePoint" />
            <mxPoint x="256" y="160" as="targetPoint" />
          </mxGeometry>
        </mxCell>
        <mxCell id="v-YkRU_EQzXXgoIS1i0s-0" value="ClientControl" style="swimlane;fontStyle=0;align=center;verticalAlign=top;childLayout=stackLayout;horizontal=1;startSize=26;horizontalStack=0;resizeParent=1;resizeLast=0;collapsible=1;marginBottom=0;rounded=0;shadow=0;strokeWidth=1;fillColor=#dae8fc;" parent="WIyWlLk6GJQsqaUBKTNV-1" vertex="1">
          <mxGeometry x="25" y="-84" width="160" height="110" as="geometry">
            <mxRectangle x="230" y="140" width="160" height="26" as="alternateBounds" />
          </mxGeometry>
        </mxCell>
        <mxCell id="v-YkRU_EQzXXgoIS1i0s-2" value="+ execute()&#xa;+ cancel()&#xa;+ pause()&#xa;+ select(id : int)&#xa;+ getSequenceIds(): int[]" style="text;align=left;verticalAlign=top;spacingLeft=4;spacingRight=4;overflow=hidden;rotatable=0;points=[[0,0.5],[1,0.5]];portConstraint=eastwest;fillColor=#dae8fc;strokeColor=#000000;" parent="v-YkRU_EQzXXgoIS1i0s-0" vertex="1">
          <mxGeometry y="26" width="160" height="84" as="geometry" />
        </mxCell>
        <mxCell id="v-YkRU_EQzXXgoIS1i0s-3" value="SequenceTasksCatalogConstructor" style="swimlane;fontStyle=0;align=center;verticalAlign=top;childLayout=stackLayout;horizontal=1;startSize=26;horizontalStack=0;resizeParent=1;resizeLast=0;collapsible=1;marginBottom=0;rounded=0;shadow=0;strokeWidth=1;fillColor=#D4E1F5;" parent="WIyWlLk6GJQsqaUBKTNV-1" vertex="1">
          <mxGeometry x="235" y="-90" width="380" height="112" as="geometry">
            <mxRectangle x="230" y="140" width="160" height="26" as="alternateBounds" />
          </mxGeometry>
        </mxCell>
        <mxCell id="v-YkRU_EQzXXgoIS1i0s-9" value="- sequenceTasksFactoryCatalog : map&lt;id, SequenceTasksFactory&gt;&#xa;" style="text;align=left;verticalAlign=top;spacingLeft=4;spacingRight=4;overflow=hidden;rotatable=0;points=[[0,0.5],[1,0.5]];portConstraint=eastwest;fillColor=#dae8fc;strokeColor=#000000;" parent="v-YkRU_EQzXXgoIS1i0s-3" vertex="1">
          <mxGeometry y="26" width="380" height="24" as="geometry" />
        </mxCell>
        <mxCell id="v-YkRU_EQzXXgoIS1i0s-5" value="#init()&#xa;+ build (id : short)&#xa;+ getSequenceIds() : int[]&#xa;" style="text;align=left;verticalAlign=top;spacingLeft=4;spacingRight=4;overflow=hidden;rotatable=0;points=[[0,0.5],[1,0.5]];portConstraint=eastwest;fillColor=#dae8fc;strokeColor=#000000;" parent="v-YkRU_EQzXXgoIS1i0s-3" vertex="1">
          <mxGeometry y="50" width="380" height="62" as="geometry" />
        </mxCell>
        <mxCell id="v-YkRU_EQzXXgoIS1i0s-6" value="SequenceTasksFactory" style="swimlane;fontStyle=0;align=center;verticalAlign=top;childLayout=stackLayout;horizontal=1;startSize=26;horizontalStack=0;resizeParent=1;resizeLast=0;collapsible=1;marginBottom=0;rounded=0;shadow=0;strokeWidth=1;fillColor=#D4E1F5;" parent="WIyWlLk6GJQsqaUBKTNV-1" vertex="1">
          <mxGeometry x="680" y="-83" width="220" height="62" as="geometry">
            <mxRectangle x="230" y="140" width="160" height="26" as="alternateBounds" />
          </mxGeometry>
        </mxCell>
        <mxCell id="v-YkRU_EQzXXgoIS1i0s-8" value="+ build () : ITask&#xa;" style="text;align=left;verticalAlign=top;spacingLeft=4;spacingRight=4;overflow=hidden;rotatable=0;points=[[0,0.5],[1,0.5]];portConstraint=eastwest;fillColor=#dae8fc;strokeColor=#000000;" parent="v-YkRU_EQzXXgoIS1i0s-6" vertex="1">
          <mxGeometry y="26" width="220" height="36" as="geometry" />
        </mxCell>
        <mxCell id="v-YkRU_EQzXXgoIS1i0s-15" value="" style="endArrow=none;html=1;endSize=12;startArrow=diamondThin;startSize=14;startFill=1;edgeStyle=orthogonalEdgeStyle;align=left;verticalAlign=bottom;entryX=0.5;entryY=0;entryDx=0;entryDy=0;endFill=0;exitX=0.5;exitY=1;exitDx=0;exitDy=0;exitPerimeter=0;" parent="WIyWlLk6GJQsqaUBKTNV-1" source="v-YkRU_EQzXXgoIS1i0s-2" target="j6-FKQegblNEumCKdTVI-21" edge="1">
          <mxGeometry x="-1" y="3" relative="1" as="geometry">
            <mxPoint x="30" y="20" as="sourcePoint" />
            <mxPoint x="335" y="207" as="targetPoint" />
          </mxGeometry>
        </mxCell>
        <mxCell id="v-YkRU_EQzXXgoIS1i0s-16" value="" style="endArrow=none;html=1;endSize=12;startArrow=diamondThin;startSize=14;startFill=1;edgeStyle=orthogonalEdgeStyle;align=left;verticalAlign=bottom;endFill=0;exitX=0.994;exitY=0.167;exitDx=0;exitDy=0;exitPerimeter=0;entryX=0.001;entryY=0.812;entryDx=0;entryDy=0;entryPerimeter=0;" parent="WIyWlLk6GJQsqaUBKTNV-1" source="v-YkRU_EQzXXgoIS1i0s-2" target="v-YkRU_EQzXXgoIS1i0s-9" edge="1">
          <mxGeometry x="-1" y="3" relative="1" as="geometry">
            <mxPoint x="72.5" y="20" as="sourcePoint" />
            <mxPoint x="220" y="-70" as="targetPoint" />
          </mxGeometry>
        </mxCell>
        <mxCell id="v-YkRU_EQzXXgoIS1i0s-17" value="" style="endArrow=none;html=1;endSize=12;startArrow=diamondThin;startSize=14;startFill=1;edgeStyle=orthogonalEdgeStyle;align=left;verticalAlign=bottom;endFill=0;entryX=-0.009;entryY=0.12;entryDx=0;entryDy=0;entryPerimeter=0;" parent="WIyWlLk6GJQsqaUBKTNV-1" source="v-YkRU_EQzXXgoIS1i0s-9" target="v-YkRU_EQzXXgoIS1i0s-8" edge="1">
          <mxGeometry x="-1" y="3" relative="1" as="geometry">
            <mxPoint x="650.0000000000002" y="59.021999999999935" as="sourcePoint" />
            <mxPoint x="736.4300000000001" y="59.488000000000284" as="targetPoint" />
          </mxGeometry>
        </mxCell>
        <mxCell id="v-YkRU_EQzXXgoIS1i0s-20" value="" style="endArrow=block;endSize=10;endFill=0;shadow=0;strokeWidth=1;rounded=0;edgeStyle=elbowEdgeStyle;elbow=vertical;exitX=0.157;exitY=-0.018;exitDx=0;exitDy=0;exitPerimeter=0;entryX=0.508;entryY=1.003;entryDx=0;entryDy=0;entryPerimeter=0;" parent="WIyWlLk6GJQsqaUBKTNV-1" source="j6-FKQegblNEumCKdTVI-5" target="zkfFHV4jXpPFQw0GAbJ--5" edge="1">
          <mxGeometry width="160" relative="1" as="geometry">
            <mxPoint x="414.84000000000015" y="317.84000000000015" as="sourcePoint" />
            <mxPoint x="306" y="240" as="targetPoint" />
            <Array as="points">
              <mxPoint x="366" y="260" />
            </Array>
          </mxGeometry>
        </mxCell>
        <mxCell id="xqG2fBtM7-_M0DI1v0vE-0" value="ControlIterator" style="swimlane;fontStyle=0;align=center;verticalAlign=top;childLayout=stackLayout;horizontal=1;startSize=26;horizontalStack=0;resizeParent=1;resizeLast=0;collapsible=1;marginBottom=0;rounded=0;shadow=0;strokeWidth=1;fillColor=#dae8fc;" vertex="1" parent="WIyWlLk6GJQsqaUBKTNV-1">
          <mxGeometry x="540" y="418" width="120" height="120" as="geometry">
            <mxRectangle x="340" y="380" width="170" height="26" as="alternateBounds" />
          </mxGeometry>
        </mxCell>
        <mxCell id="xqG2fBtM7-_M0DI1v0vE-1" value="+ init()&#xa;+ begin()&#xa;+ previous()&#xa;+ isEnd()&#xa;+ nextIteration()&#xa;+ previousIteration()&#xa;" style="text;align=left;verticalAlign=top;spacingLeft=4;spacingRight=4;overflow=hidden;rotatable=0;points=[[0,0.5],[1,0.5]];portConstraint=eastwest;fontStyle=0;fillColor=#dae8fc;strokeColor=#000000;" vertex="1" parent="xqG2fBtM7-_M0DI1v0vE-0">
          <mxGeometry y="26" width="120" height="94" as="geometry" />
        </mxCell>
        <mxCell id="xqG2fBtM7-_M0DI1v0vE-2" value="" style="endArrow=none;html=1;endSize=12;startArrow=diamondThin;startSize=14;startFill=1;edgeStyle=orthogonalEdgeStyle;align=left;verticalAlign=bottom;exitX=0.476;exitY=0.004;exitDx=0;exitDy=0;endFill=0;exitPerimeter=0;" edge="1" parent="WIyWlLk6GJQsqaUBKTNV-1" source="xqG2fBtM7-_M0DI1v0vE-0" target="j6-FKQegblNEumCKdTVI-8">
          <mxGeometry x="-1" y="3" relative="1" as="geometry">
            <mxPoint x="466" y="310" as="sourcePoint" />
            <mxPoint x="361" y="199" as="targetPoint" />
          </mxGeometry>
        </mxCell>
      </root>
    </mxGraphModel>
  </diagram>
</mxfile>
